<mxfile host="app.diagrams.net" modified="2022-10-20T22:45:40.245Z" agent="5.0 (Windows NT 10.0; Win64; x64) AppleWebKit/537.36 (KHTML, like Gecko) Chrome/106.0.0.0 Safari/537.36" etag="HCL-sv5OAoh5O2sezD05" version="20.4.2" type="github">
  <diagram id="proGfRAjdQ2W4pyw41e0" name="Page-1">
    <mxGraphModel dx="1303" dy="1094" grid="1" gridSize="10" guides="1" tooltips="1" connect="1" arrows="1" fold="1" page="1" pageScale="1" pageWidth="850" pageHeight="1100" math="0" shadow="0">
      <root>
        <mxCell id="0" />
        <mxCell id="1" parent="0" />
        <mxCell id="Lak--lXeLGor-w9WOawi-1" value="&lt;b&gt;&lt;font style=&quot;font-size: 18px;&quot;&gt;Airport&lt;/font&gt;&lt;/b&gt;" style="text;html=1;align=center;verticalAlign=middle;resizable=0;points=[];autosize=1;strokeColor=none;fillColor=none;" vertex="1" parent="1">
          <mxGeometry x="80" y="40" width="80" height="40" as="geometry" />
        </mxCell>
        <mxCell id="Lak--lXeLGor-w9WOawi-2" value="&lt;b&gt;&lt;font style=&quot;font-size: 18px;&quot;&gt;Leg_Instance&lt;/font&gt;&lt;/b&gt;" style="text;html=1;align=center;verticalAlign=middle;resizable=0;points=[];autosize=1;strokeColor=none;fillColor=none;" vertex="1" parent="1">
          <mxGeometry x="80" y="160" width="140" height="40" as="geometry" />
        </mxCell>
        <mxCell id="Lak--lXeLGor-w9WOawi-3" value="&lt;b&gt;&lt;font style=&quot;font-size: 18px;&quot;&gt;Flight_Leg&lt;/font&gt;&lt;/b&gt;" style="text;html=1;align=center;verticalAlign=middle;resizable=0;points=[];autosize=1;strokeColor=none;fillColor=none;" vertex="1" parent="1">
          <mxGeometry x="80" y="280" width="110" height="40" as="geometry" />
        </mxCell>
        <mxCell id="Lak--lXeLGor-w9WOawi-4" value="&lt;b&gt;&lt;font style=&quot;font-size: 18px;&quot;&gt;Flight&lt;/font&gt;&lt;/b&gt;" style="text;html=1;align=center;verticalAlign=middle;resizable=0;points=[];autosize=1;strokeColor=none;fillColor=none;" vertex="1" parent="1">
          <mxGeometry x="80" y="400" width="70" height="40" as="geometry" />
        </mxCell>
        <mxCell id="Lak--lXeLGor-w9WOawi-5" value="&lt;b&gt;&lt;font style=&quot;font-size: 18px;&quot;&gt;Fare&lt;/font&gt;&lt;/b&gt;" style="text;html=1;align=center;verticalAlign=middle;resizable=0;points=[];autosize=1;strokeColor=none;fillColor=none;" vertex="1" parent="1">
          <mxGeometry x="80" y="520" width="60" height="40" as="geometry" />
        </mxCell>
        <mxCell id="Lak--lXeLGor-w9WOawi-6" value="&lt;b&gt;&lt;font style=&quot;font-size: 18px;&quot;&gt;Seat&lt;/font&gt;&lt;/b&gt;" style="text;html=1;align=center;verticalAlign=middle;resizable=0;points=[];autosize=1;strokeColor=none;fillColor=none;" vertex="1" parent="1">
          <mxGeometry x="80" y="640" width="60" height="40" as="geometry" />
        </mxCell>
        <mxCell id="Lak--lXeLGor-w9WOawi-7" value="&lt;b&gt;&lt;font style=&quot;font-size: 18px;&quot;&gt;AirlineType&lt;/font&gt;&lt;/b&gt;" style="text;html=1;align=center;verticalAlign=middle;resizable=0;points=[];autosize=1;strokeColor=none;fillColor=none;" vertex="1" parent="1">
          <mxGeometry x="80" y="760" width="120" height="40" as="geometry" />
        </mxCell>
        <mxCell id="Lak--lXeLGor-w9WOawi-8" value="&lt;b&gt;&lt;font style=&quot;font-size: 18px;&quot;&gt;Airplane&lt;/font&gt;&lt;/b&gt;" style="text;html=1;align=center;verticalAlign=middle;resizable=0;points=[];autosize=1;strokeColor=none;fillColor=none;" vertex="1" parent="1">
          <mxGeometry x="80" y="880" width="100" height="40" as="geometry" />
        </mxCell>
        <mxCell id="Lak--lXeLGor-w9WOawi-9" value="AirportCode" style="ellipse;whiteSpace=wrap;html=1;align=center;fontStyle=4;fontSize=18;" vertex="1" parent="1">
          <mxGeometry x="80" y="80" width="120" height="40" as="geometry" />
        </mxCell>
        <mxCell id="Lak--lXeLGor-w9WOawi-10" value="Name" style="ellipse;whiteSpace=wrap;html=1;align=center;fontSize=18;" vertex="1" parent="1">
          <mxGeometry x="400" y="80" width="100" height="40" as="geometry" />
        </mxCell>
        <mxCell id="Lak--lXeLGor-w9WOawi-11" value="State" style="ellipse;whiteSpace=wrap;html=1;align=center;fontSize=18;" vertex="1" parent="1">
          <mxGeometry x="300" y="80" width="100" height="40" as="geometry" />
        </mxCell>
        <mxCell id="Lak--lXeLGor-w9WOawi-12" value="City" style="ellipse;whiteSpace=wrap;html=1;align=center;fontSize=18;" vertex="1" parent="1">
          <mxGeometry x="200" y="80" width="100" height="40" as="geometry" />
        </mxCell>
        <mxCell id="Lak--lXeLGor-w9WOawi-13" value="SeatsNo" style="ellipse;whiteSpace=wrap;html=1;align=center;fontSize=18;" vertex="1" parent="1">
          <mxGeometry x="80" y="200" width="100" height="40" as="geometry" />
        </mxCell>
        <mxCell id="Lak--lXeLGor-w9WOawi-14" value="Date" style="ellipse;whiteSpace=wrap;html=1;align=center;fontStyle=4;fontSize=18;" vertex="1" parent="1">
          <mxGeometry x="180" y="200" width="100" height="40" as="geometry" />
        </mxCell>
        <mxCell id="Lak--lXeLGor-w9WOawi-43" style="edgeStyle=orthogonalEdgeStyle;rounded=0;orthogonalLoop=1;jettySize=auto;html=1;fontSize=18;entryX=0.5;entryY=1;entryDx=0;entryDy=0;" edge="1" parent="1" source="Lak--lXeLGor-w9WOawi-15" target="Lak--lXeLGor-w9WOawi-9">
          <mxGeometry relative="1" as="geometry">
            <mxPoint x="70" y="140" as="targetPoint" />
            <Array as="points">
              <mxPoint x="340" y="280" />
              <mxPoint x="60" y="280" />
              <mxPoint x="60" y="160" />
              <mxPoint x="140" y="160" />
            </Array>
          </mxGeometry>
        </mxCell>
        <mxCell id="Lak--lXeLGor-w9WOawi-15" value="AirportCode" style="ellipse;whiteSpace=wrap;html=1;align=center;fontStyle=4;fontSize=18;" vertex="1" parent="1">
          <mxGeometry x="280" y="200" width="120" height="40" as="geometry" />
        </mxCell>
        <mxCell id="Lak--lXeLGor-w9WOawi-46" style="edgeStyle=orthogonalEdgeStyle;rounded=0;orthogonalLoop=1;jettySize=auto;html=1;fontSize=18;entryX=0.5;entryY=1;entryDx=0;entryDy=0;" edge="1" parent="1" source="Lak--lXeLGor-w9WOawi-16" target="Lak--lXeLGor-w9WOawi-20">
          <mxGeometry relative="1" as="geometry">
            <mxPoint x="130" y="370" as="targetPoint" />
            <Array as="points">
              <mxPoint x="450" y="290" />
              <mxPoint x="50" y="290" />
              <mxPoint x="50" y="370" />
              <mxPoint x="130" y="370" />
            </Array>
          </mxGeometry>
        </mxCell>
        <mxCell id="Lak--lXeLGor-w9WOawi-16" value="LegNo" style="ellipse;whiteSpace=wrap;html=1;align=center;fontStyle=4;fontSize=18;" vertex="1" parent="1">
          <mxGeometry x="400" y="200" width="100" height="40" as="geometry" />
        </mxCell>
        <mxCell id="Lak--lXeLGor-w9WOawi-47" style="edgeStyle=orthogonalEdgeStyle;rounded=0;orthogonalLoop=1;jettySize=auto;html=1;fontSize=18;entryX=0.39;entryY=0.975;entryDx=0;entryDy=0;entryPerimeter=0;" edge="1" parent="1" source="Lak--lXeLGor-w9WOawi-17" target="Lak--lXeLGor-w9WOawi-40">
          <mxGeometry relative="1" as="geometry">
            <mxPoint x="810" y="1070" as="targetPoint" />
            <Array as="points">
              <mxPoint x="550" y="275" />
              <mxPoint x="820" y="275" />
              <mxPoint x="820" y="1070" />
              <mxPoint x="119" y="1070" />
            </Array>
          </mxGeometry>
        </mxCell>
        <mxCell id="Lak--lXeLGor-w9WOawi-17" value="AirplaneId" style="ellipse;whiteSpace=wrap;html=1;align=center;fontStyle=4;fontSize=18;" vertex="1" parent="1">
          <mxGeometry x="500" y="200" width="100" height="40" as="geometry" />
        </mxCell>
        <mxCell id="Lak--lXeLGor-w9WOawi-18" value="ArrTime" style="ellipse;whiteSpace=wrap;html=1;align=center;fontSize=18;" vertex="1" parent="1">
          <mxGeometry x="700" y="200" width="100" height="40" as="geometry" />
        </mxCell>
        <mxCell id="Lak--lXeLGor-w9WOawi-19" value="DepTime" style="ellipse;whiteSpace=wrap;html=1;align=center;fontSize=18;" vertex="1" parent="1">
          <mxGeometry x="600" y="200" width="100" height="40" as="geometry" />
        </mxCell>
        <mxCell id="Lak--lXeLGor-w9WOawi-20" value="&lt;u&gt;LegNo&lt;/u&gt;" style="ellipse;whiteSpace=wrap;html=1;align=center;fontSize=18;" vertex="1" parent="1">
          <mxGeometry x="80" y="320" width="100" height="40" as="geometry" />
        </mxCell>
        <mxCell id="Lak--lXeLGor-w9WOawi-49" style="edgeStyle=orthogonalEdgeStyle;rounded=0;orthogonalLoop=1;jettySize=auto;html=1;fontSize=18;entryX=0.68;entryY=0.95;entryDx=0;entryDy=0;entryPerimeter=0;" edge="1" parent="1" source="Lak--lXeLGor-w9WOawi-21" target="Lak--lXeLGor-w9WOawi-25">
          <mxGeometry relative="1" as="geometry">
            <mxPoint x="150" y="510" as="targetPoint" />
            <Array as="points">
              <mxPoint x="340" y="390" />
              <mxPoint x="430" y="390" />
              <mxPoint x="430" y="510" />
              <mxPoint x="148" y="510" />
            </Array>
          </mxGeometry>
        </mxCell>
        <mxCell id="Lak--lXeLGor-w9WOawi-21" value="Number" style="ellipse;whiteSpace=wrap;html=1;align=center;fontStyle=4;fontSize=18;" vertex="1" parent="1">
          <mxGeometry x="290" y="320" width="100" height="40" as="geometry" />
        </mxCell>
        <mxCell id="Lak--lXeLGor-w9WOawi-44" style="edgeStyle=orthogonalEdgeStyle;rounded=0;orthogonalLoop=1;jettySize=auto;html=1;fontSize=18;entryX=0.342;entryY=0.975;entryDx=0;entryDy=0;entryPerimeter=0;" edge="1" parent="1" source="Lak--lXeLGor-w9WOawi-22" target="Lak--lXeLGor-w9WOawi-9">
          <mxGeometry relative="1" as="geometry">
            <mxPoint x="120" y="150" as="targetPoint" />
            <Array as="points">
              <mxPoint x="235" y="385" />
              <mxPoint x="40" y="385" />
              <mxPoint x="40" y="150" />
              <mxPoint x="120" y="150" />
            </Array>
          </mxGeometry>
        </mxCell>
        <mxCell id="Lak--lXeLGor-w9WOawi-22" value="AirportCode" style="ellipse;whiteSpace=wrap;html=1;align=center;fontStyle=4;fontSize=18;" vertex="1" parent="1">
          <mxGeometry x="180" y="320" width="110" height="40" as="geometry" />
        </mxCell>
        <mxCell id="Lak--lXeLGor-w9WOawi-23" value="ScheduledDepTime" style="ellipse;whiteSpace=wrap;html=1;align=center;fontSize=18;" vertex="1" parent="1">
          <mxGeometry x="580" y="320" width="170" height="40" as="geometry" />
        </mxCell>
        <mxCell id="Lak--lXeLGor-w9WOawi-24" value="ScheduledDepTime" style="ellipse;whiteSpace=wrap;html=1;align=center;fontSize=18;" vertex="1" parent="1">
          <mxGeometry x="390" y="320" width="190" height="40" as="geometry" />
        </mxCell>
        <mxCell id="Lak--lXeLGor-w9WOawi-25" value="Number" style="ellipse;whiteSpace=wrap;html=1;align=center;fontStyle=4;fontSize=18;" vertex="1" parent="1">
          <mxGeometry x="80" y="440" width="100" height="40" as="geometry" />
        </mxCell>
        <mxCell id="Lak--lXeLGor-w9WOawi-26" value="Weekdays" style="ellipse;whiteSpace=wrap;html=1;align=center;fontSize=18;" vertex="1" parent="1">
          <mxGeometry x="280" y="440" width="100" height="40" as="geometry" />
        </mxCell>
        <mxCell id="Lak--lXeLGor-w9WOawi-27" value="Airline" style="ellipse;whiteSpace=wrap;html=1;align=center;fontSize=18;" vertex="1" parent="1">
          <mxGeometry x="180" y="440" width="100" height="40" as="geometry" />
        </mxCell>
        <mxCell id="Lak--lXeLGor-w9WOawi-48" style="edgeStyle=orthogonalEdgeStyle;rounded=0;orthogonalLoop=1;jettySize=auto;html=1;fontSize=18;entryX=0.5;entryY=1;entryDx=0;entryDy=0;" edge="1" parent="1" source="Lak--lXeLGor-w9WOawi-28" target="Lak--lXeLGor-w9WOawi-25">
          <mxGeometry relative="1" as="geometry">
            <mxPoint x="50" y="470" as="targetPoint" />
            <Array as="points">
              <mxPoint x="230" y="635" />
              <mxPoint x="30" y="635" />
              <mxPoint x="30" y="510" />
              <mxPoint x="130" y="510" />
            </Array>
          </mxGeometry>
        </mxCell>
        <mxCell id="Lak--lXeLGor-w9WOawi-28" value="Number" style="ellipse;whiteSpace=wrap;html=1;align=center;fontStyle=4;fontSize=18;" vertex="1" parent="1">
          <mxGeometry x="180" y="560" width="100" height="40" as="geometry" />
        </mxCell>
        <mxCell id="Lak--lXeLGor-w9WOawi-29" value="Code" style="ellipse;whiteSpace=wrap;html=1;align=center;fontStyle=4;fontSize=18;" vertex="1" parent="1">
          <mxGeometry x="80" y="560" width="100" height="40" as="geometry" />
        </mxCell>
        <mxCell id="Lak--lXeLGor-w9WOawi-30" value="Restrictions" style="ellipse;whiteSpace=wrap;html=1;align=center;fontSize=18;" vertex="1" parent="1">
          <mxGeometry x="380" y="560" width="110" height="40" as="geometry" />
        </mxCell>
        <mxCell id="Lak--lXeLGor-w9WOawi-31" value="Amount" style="ellipse;whiteSpace=wrap;html=1;align=center;fontSize=18;" vertex="1" parent="1">
          <mxGeometry x="280" y="560" width="100" height="40" as="geometry" />
        </mxCell>
        <mxCell id="Lak--lXeLGor-w9WOawi-32" value="SeatNo" style="ellipse;whiteSpace=wrap;html=1;align=center;fontStyle=4;fontSize=18;" vertex="1" parent="1">
          <mxGeometry x="80" y="680" width="100" height="40" as="geometry" />
        </mxCell>
        <mxCell id="Lak--lXeLGor-w9WOawi-33" value="CPhone" style="ellipse;whiteSpace=wrap;html=1;align=center;fontSize=18;" vertex="1" parent="1">
          <mxGeometry x="390" y="680" width="100" height="40" as="geometry" />
        </mxCell>
        <mxCell id="Lak--lXeLGor-w9WOawi-34" value="CName" style="ellipse;whiteSpace=wrap;html=1;align=center;fontSize=18;" vertex="1" parent="1">
          <mxGeometry x="280" y="680" width="100" height="40" as="geometry" />
        </mxCell>
        <mxCell id="Lak--lXeLGor-w9WOawi-35" value="Date" style="ellipse;whiteSpace=wrap;html=1;align=center;fontSize=18;" vertex="1" parent="1">
          <mxGeometry x="180" y="680" width="100" height="40" as="geometry" />
        </mxCell>
        <mxCell id="Lak--lXeLGor-w9WOawi-36" value="TypeName" style="ellipse;whiteSpace=wrap;html=1;align=center;fontStyle=4;fontSize=18;" vertex="1" parent="1">
          <mxGeometry x="80" y="800" width="100" height="40" as="geometry" />
        </mxCell>
        <mxCell id="Lak--lXeLGor-w9WOawi-37" value="MaxSeats" style="ellipse;whiteSpace=wrap;html=1;align=center;fontSize=18;" vertex="1" parent="1">
          <mxGeometry x="180" y="800" width="100" height="40" as="geometry" />
        </mxCell>
        <mxCell id="Lak--lXeLGor-w9WOawi-38" value="Company" style="ellipse;whiteSpace=wrap;html=1;align=center;fontSize=18;" vertex="1" parent="1">
          <mxGeometry x="280" y="800" width="100" height="40" as="geometry" />
        </mxCell>
        <mxCell id="Lak--lXeLGor-w9WOawi-42" style="edgeStyle=orthogonalEdgeStyle;rounded=0;orthogonalLoop=1;jettySize=auto;html=1;fontSize=18;entryX=0.5;entryY=1;entryDx=0;entryDy=0;" edge="1" parent="1" source="Lak--lXeLGor-w9WOawi-39" target="Lak--lXeLGor-w9WOawi-36">
          <mxGeometry relative="1" as="geometry">
            <mxPoint x="60" y="850" as="targetPoint" />
            <Array as="points">
              <mxPoint x="230" y="1000" />
              <mxPoint x="50" y="1000" />
              <mxPoint x="50" y="880" />
              <mxPoint x="130" y="880" />
            </Array>
          </mxGeometry>
        </mxCell>
        <mxCell id="Lak--lXeLGor-w9WOawi-39" value="TypeName" style="ellipse;whiteSpace=wrap;html=1;align=center;fontStyle=4;fontSize=18;" vertex="1" parent="1">
          <mxGeometry x="180" y="920" width="100" height="40" as="geometry" />
        </mxCell>
        <mxCell id="Lak--lXeLGor-w9WOawi-40" value="AirplaneId" style="ellipse;whiteSpace=wrap;html=1;align=center;fontStyle=4;fontSize=18;" vertex="1" parent="1">
          <mxGeometry x="80" y="920" width="100" height="40" as="geometry" />
        </mxCell>
        <mxCell id="Lak--lXeLGor-w9WOawi-41" value="TotalSeats" style="ellipse;whiteSpace=wrap;html=1;align=center;fontSize=18;" vertex="1" parent="1">
          <mxGeometry x="280" y="920" width="100" height="40" as="geometry" />
        </mxCell>
      </root>
    </mxGraphModel>
  </diagram>
</mxfile>
